<svg xmlns="http://www.w3.org/2000/svg" viewBox="0 0 192 192" fill="none">
  <defs>
    <linearGradient id="bg-g" x1="0" y1="0" x2="192" y2="192" gradientUnits="userSpaceOnUse">
      <stop offset="0" stop-color="#0A2A6E"/>
      <stop offset="1" stop-color="#1948C9"/>
    </linearGradient>
    <linearGradient id="ico-arrow" x1="60" y1="140" x2="150" y2="40" gradientUnits="userSpaceOnUse">
      <stop offset="0" stop-color="#5BA0FF"/>
      <stop offset="1" stop-color="#FFFFFF"/>
    </linearGradient>
  </defs>
  <rect width="192" height="192" rx="42" fill="url(#bg-g)"/>
  <path d="M50 40 L50 152 L74 152 L74 110 L106 110 L106 92 L74 92 L74 62 L122 62 L122 40 Z" fill="#FFFFFF"/>
  <rect x="94" y="118" width="14" height="34" rx="3" fill="#FFFFFF"/>
  <rect x="114" y="100" width="14" height="52" rx="3" fill="#FFFFFF"/>
  <rect x="134" y="78" width="14" height="74" rx="3" fill="#FFFFFF"/>
  <path d="M86 132 L120 98 L110 98 L110 88 L142 88 L142 120 L132 120 L132 110 L96 146 Z" fill="url(#ico-arrow)"/>
</svg>
